<svg height="182" viewBox="0 0 182 182" width="182" xmlns="http://www.w3.org/2000/svg"><title/><g transform="translate(1 1)" fill="none" fill-rule="evenodd"><ellipse cx="89.975" cy="90.099" fill="#CA4638" fill-opacity=".9" rx="89.812" ry="89.784"/><g fill="#F0EB4E"><path d="M60.049 69.281l-18.495 9.347 3.532-19.797-14.963-14.02L50.8 41.923l9.248-18.012 9.248 18.012 20.678 2.888-14.963 14.02 3.533 19.797zM90.723 27.704l-3.894 1.968.744-4.169-3.151-2.952 4.354-.608 1.947-3.792 1.947 3.792 4.354.608-3.15 2.952.743 4.169zM107.352 41.07l-3.894 1.967.744-4.168-3.15-2.952 4.353-.608 1.947-3.793 1.948 3.793 4.354.608-3.151 2.952.744 4.168zM109.285 61.148l-3.894 1.968.744-4.169-3.151-2.952 4.354-.608 1.947-3.792 1.947 3.792 4.354.608-3.15 2.952.744 4.169zM93.775 78.61l-3.894 1.968.744-4.169-3.151-2.952 4.354-.608 1.947-3.792 1.947 3.792 4.354.608-3.15 2.952.744 4.169z"/></g></g></svg>